<svg viewBox="0 0 132.29166 132.29167" xmlns="http://www.w3.org/2000/svg">
  <path
     id="karel-head"
     style="fill:#a87ace"
     d="m 92.28055,7.3210001 c 6.510779,0 11.75225,5.2414759 11.75225,11.7522539 v 29.929439 c 0,6.510778 -5.241471,11.752254 -11.75225,11.752254 H 40.01139 c -6.510777,0 -11.75277,-5.241476 -11.75277,-11.752254 V 19.073254 c 0,-6.510778 5.241993,-11.7522539 11.75277,-11.7522539 z m 2.154908,56.6497709 c 0.415305,0.0019 0.833544,0.01862 1.25367,0.05064 5.041512,0.384316 10.352092,2.930711 13.941782,7.506002 4.78626,6.100388 6.0102,15.862897 -0.85783,28.006042 l -3.42769,-1.939933 c 6.34704,-11.22202 4.95914,-18.824918 1.18545,-23.63473 -3.77369,-4.809811 -10.437138,-6.773237 -14.833716,-5.757788 l -0.886768,-3.837492 c 1.160308,-0.267988 2.379186,-0.398371 3.625102,-0.392741 z m -56.579492,0 c 1.245915,-0.0056 2.464794,0.124753 3.625102,0.392741 L 40.5943,68.201004 c -4.396577,-1.015449 -11.06004,0.947977 -14.83372,5.757788 -3.77369,4.809812 -5.1616,12.41271 1.18545,23.634733 l -3.42769,1.939933 C 16.65031,87.390313 17.87477,77.627804 22.66103,71.527416 c 3.58968,-4.575291 8.89975,-7.121686 13.941263,-7.506002 0.42013,-0.03203 0.838368,-0.04877 1.253673,-0.05064 z m 44.89034,35.114653 V 112.3456 c 0.379506,1.37909 1.419306,2.38957 2.675806,2.59984 h 1.403474 c 2.134296,0 3.851962,1.68459 3.851962,3.77754 v 7.14479 c 0,2.09296 -1.717666,3.77806 -3.851962,3.77806 H 72.313811 c -2.134297,0 -3.852995,-1.6851 -3.852995,-3.77806 v -7.14479 c 0,-2.09295 1.718698,-3.77754 3.852995,-3.77754 h 1.58704 c 1.256504,-0.21027 2.296298,-1.22074 2.675806,-2.59984 V 99.085424 Z m -26.928711,0 V 112.3456 c 0.379506,1.37909 1.419306,2.38957 2.675806,2.59984 h 1.485246 c 2.134295,0 3.851961,1.68459 3.851961,3.77754 v 7.14479 c 0,2.09296 -1.717666,3.77806 -3.851961,3.77806 H 45.466354 c -2.134297,0 -3.852478,-1.6851 -3.852478,-3.77806 v -7.14479 c 0,-2.09295 1.718181,-3.77754 3.852478,-3.77754 h 1.505787 c 1.256503,-0.21027 2.296298,-1.22074 2.675805,-2.59984 V 99.085424 Z" />
  <path
     id="karel-body"
     style="fill:#3dbcc0"
     d="m 77.76343,2.6458333 c 0.746052,0 1.346688,0.600636 1.346688,1.3466878 v 0.5105632 c 0,0.7460518 -0.600636,1.3466878 -1.346688,1.3466878 H 67.699962 v 1.471228 H 64.591625 V 5.8497721 H 54.52764 c -0.746053,0 -1.346688,-0.600636 -1.346688,-1.3466878 V 3.9925211 c 0,-0.7460518 0.600635,-1.3466878 1.346688,-1.3466878 z m 6.745325,58.1091137 c 5.143282,0 9.283671,4.140906 9.283671,9.284188 v 23.643518 c 0,5.14328 -4.140389,9.283667 -9.283671,9.283667 H 47.782832 c -5.143282,0 -9.284188,-4.140387 -9.284188,-9.283667 V 70.039135 c 0,-5.143282 4.140906,-9.284188 9.284188,-9.284188 z m 19.605005,35.345646 a 6.2776936,7.4036958 43.368448 0 1 0.85628,0.07751 6.2776936,7.4036958 43.368448 0 1 2.96054,1.437121 6.2776936,7.4036958 43.368448 0 1 1.60352,2.873736 6.2776936,7.4036958 43.368448 0 1 -1.18081,5.62808 l -0.004,-0.004 a 1.2535163,1.2535163 0 0 1 -0.15864,0.20825 1.2535163,1.2535163 0 0 1 -1.69654,0.11628 l -0.13539,-0.12764 a 1.2535163,1.2535163 0 0 1 -0.0222,-0.0253 l -0.002,0.002 -3.48506,-3.2923 -3.485577,-3.292315 0.0015,-0.0021 a 1.2535163,1.2535163 0 0 1 -0.02584,-0.02067 l -0.136426,-0.128158 a 1.2535163,1.2535163 0 0 1 0.01964,-1.700671 1.2535163,1.2535163 0 0 1 0.198954,-0.170016 l -0.0036,-0.0036 a 6.2776936,7.4036958 43.368448 0 1 4.695319,-1.576648 z m -75.93594,0 a 7.4036958,6.2776936 46.631552 0 1 4.695324,1.576648 l -0.004,0.0036 a 1.2535163,1.2535163 0 0 1 0.19947,0.170016 1.2535163,1.2535163 0 0 1 0.0191,1.700671 l -0.13591,0.128158 a 1.2535163,1.2535163 0 0 1 -0.0264,0.02067 l 0.002,0.0021 -3.485574,3.292314 -3.48506,3.2923 -0.002,-0.002 a 1.2535163,1.2535163 0 0 1 -0.0222,0.0253 l -0.13539,0.12764 a 1.2535163,1.2535163 0 0 1 -1.69654,-0.11628 1.2535163,1.2535163 0 0 1 -0.15865,-0.20825 l -0.004,0.004 a 7.4036958,6.2776936 46.631552 0 1 -1.18029,-5.62808 7.4036958,6.2776936 46.631552 0 1 1.60352,-2.873735 7.4036958,6.2776936 46.631552 0 1 2.96003,-1.437121 7.4036958,6.2776936 46.631552 0 1 0.85679,-0.07751 z" />
</svg>
