<svg viewBox="0 0 132.29166 132.29167" xmlns="http://www.w3.org/2000/svg">
  <path
     id="karel-body"
     style="fill:#3dbcc0"
     d="m 63.610443,2.6464844 c -0.746052,5.8e-6 -1.347655,0.5996511 -1.347656,1.3457031 v 0.5117187 c 0,0.7460521 0.601603,1.3457087 1.347656,1.3457032 h 10.0625 v 1.4707031 h 3.109375 V 5.8496094 h 10.0625 c 0.746053,-5.5e-6 1.347656,-0.5996511 1.347656,-1.3457032 V 3.9921875 c -10e-7,-0.7460422 -0.601606,-1.3456992 -1.347656,-1.3457031 z m 1.236328,58.1093746 c -5.143271,10e-7 -9.283206,4.139938 -9.283203,9.283203 v 23.644532 c 0,5.14327 4.139933,9.283206 9.283203,9.283206 h 19.128907 c 5.143272,0 9.283203,-4.139936 9.283203,-9.283206 V 70.039062 c 10e-7,-5.143274 -4.139932,-9.283205 -9.283203,-9.283203 z M 44.63974,91.595703 c -0.0437,-0.002 -0.08713,-6.32e-4 -0.130859,0.002 -0.652357,0.04082 -1.164589,0.57498 -1.175781,1.228516 l 0.01172,0.1875 c 0.0018,0.01129 0.0039,0.02221 0.0059,0.0332 h -0.002 l 0.298829,4.785156 0.298828,4.785155 h 0.002 c -9.95e-4,0.0114 2.52e-4,0.022 0,0.0332 l 0.01172,0.18555 c 0.09267,0.64688 0.666126,1.11497 1.318359,1.07422 0.08728,-0.006 0.173499,-0.0217 0.257812,-0.0449 v 0.006 c 2.037622,-0.49262 3.74926,-1.69552 4.705079,-3.30664 0.587675,-0.993276 0.860951,-2.095792 0.791015,-3.195305 -0.0675,-1.099512 -0.475016,-2.157991 -1.18164,-3.070313 C 49.67642,94.074397 49.483879,93.85909 49.276459,93.65625 48.124252,92.530124 46.525238,91.801479 44.7706,91.603516 v 0.0059 c -0.04329,-0.0065 -0.08716,-0.01167 -0.13086,-0.01367 z" />
  <path
     id="karel-eye"
     style="fill:#525252;fill-opacity:1;stroke-width:0.286486;-inkscape-stroke:none;stop-color:#000000"
     d="m 32.58085,21.34185 v 6.921541 h -2.35276 v 13.03848 h 2.35276 v 6.803719 h 3.078045 V 21.34185 Z" />
  <path
     id="karel-head"
     style="fill:#a87ace"
     d="m 47.412801,7.3203125 c -6.51076,0 -11.753906,5.2431485 -11.753906,11.7539065 v 29.927734 c 0,6.51076 5.243146,11.753906 11.753906,11.753906 h 42.898814 c 6.510757,0 11.751955,-5.243146 11.751955,-11.753906 V 19.074219 c 0,-6.510758 -5.241198,-11.7539065 -11.751955,-11.7539065 z m 30.396861,57.7949215 -4.865234,1.314454 c 2.419387,7.083437 0.233468,16.308873 -4.720704,21.001953 -4.806772,4.553449 -9.46984,6.289582 -18.140624,7.189453 0.562878,0.835361 0.889545,1.776033 0.949218,2.748047 0.06161,0.968553 -0.144488,1.939584 -0.595703,2.835939 12.865769,-1.245544 19.807375,-6.763755 22.726563,-10.271486 2.997642,-3.602006 7.927217,-14.323944 4.646484,-24.81836 z m -7.71875,37.851566 v 9.3789 c -0.37951,1.37909 -1.419285,2.38934 -2.675781,2.59961 h -2.748047 c -2.134286,0 -3.853516,1.6844 -3.853516,3.77735 v 7.14453 c 0,2.09296 1.71923,3.77929 3.853516,3.77929 h 14.511719 c 2.134284,0 3.851562,-1.68633 3.851562,-3.77929 v -7.14453 c 0,-2.09295 -1.049308,-3.77735 -3.183594,-3.77735 h -0.910156 c -1.256498,-0.21027 -2.296273,-1.22051 -2.675781,-2.59961 v -9.3789 z" />
</svg>
