<svg viewBox="0 0 132.29201 132.29167" xmlns="http://www.w3.org/2000/svg">
  <rect
     style="fill:#ffffff"
     width="132.29166"
     height="132.29166"
     x="0"
     y="0" />
  <path
     style="fill:#acacac"
     d="M 4.7695312 0 C 3.2222028 -2.9605918e-16 1.9765625 1.2456366 1.9765625 2.7929688 L 1.9765625 12.625 C 1.9765625 14.172331 3.2222028 15.416016 4.7695312 15.416016 L 39.464844 15.416016 C 41.012175 15.416016 42.257812 14.172331 42.257812 12.625 L 42.257812 2.7929688 C 42.257812 1.2456366 41.012175 0 39.464844 0 L 4.7695312 0 z M 48.798828 0 C 47.2515 -2.9605918e-16 46.005859 1.2456366 46.005859 2.7929688 L 46.005859 12.625 C 46.005859 14.172331 47.2515 15.416016 48.798828 15.416016 L 83.494141 15.416016 C 85.041472 15.416016 86.287109 14.172331 86.287109 12.625 L 86.287109 2.7929688 C 86.287109 1.2456366 85.041471 0 83.494141 0 L 48.798828 0 z M 92.828125 0 C 91.280794 0 90.035156 1.2456366 90.035156 2.7929688 L 90.035156 12.625 C 90.035156 14.172331 91.280794 15.416016 92.828125 15.416016 L 127.52344 15.416016 C 129.07077 15.416016 130.31641 14.172331 130.31641 12.625 L 130.31641 2.7929688 C 130.31641 1.2456366 129.07077 -2.9605918e-16 127.52344 0 L 92.828125 0 z M 0 19.478516 L 0 22.271484 L 0 25.144531 L 0 29.230469 L 0 32.101562 L 0 34.894531 L 2.7929688 34.894531 L 5.6660156 34.894531 L 15.621094 34.894531 C 17.16842 34.894531 18.414062 33.64889 18.414062 32.101562 L 18.414062 22.271484 C 18.414062 20.724167 17.16842 19.478516 15.621094 19.478516 L 5.6660156 19.478516 L 2.7929688 19.478516 L 0 19.478516 z M 25.53125 19.478516 C 23.983919 19.478516 22.738281 20.724162 22.738281 22.271484 L 22.738281 32.101562 C 22.738281 33.64889 23.983919 34.896484 25.53125 34.896484 L 61.191406 34.896484 C 62.738739 34.896484 63.984375 33.64889 63.984375 32.101562 L 63.984375 22.271484 C 63.984375 20.724162 62.738739 19.478516 61.191406 19.478516 L 25.53125 19.478516 z M 71.101562 19.478516 C 69.554231 19.478516 68.308594 20.724162 68.308594 22.271484 L 68.308594 32.101562 C 68.308594 33.64889 69.554231 34.896484 71.101562 34.896484 L 106.75977 34.896484 C 108.3071 34.896484 109.55469 33.64889 109.55469 32.101562 L 109.55469 22.271484 C 109.55469 20.724162 108.3071 19.478516 106.75977 19.478516 L 71.101562 19.478516 z M 116.67188 19.478516 C 115.12455 19.478516 113.87891 20.724167 113.87891 22.271484 L 113.87891 32.101562 C 113.87891 33.64889 115.12455 34.894531 116.67188 34.894531 L 126.62695 34.894531 L 129.5 34.894531 L 132.29297 34.894531 L 132.29297 32.101562 L 132.29297 29.230469 L 132.29297 25.144531 L 132.29297 22.271484 L 132.29297 19.478516 L 129.5 19.478516 L 126.62695 19.478516 L 116.67188 19.478516 z M 4.7695312 38.958984 C 3.2222028 38.958984 1.9765625 40.204621 1.9765625 41.751953 L 1.9765625 51.583984 C 1.9765625 53.131316 3.2222028 54.375 4.7695312 54.375 L 39.464844 54.375 C 41.012175 54.375 42.257812 53.131316 42.257812 51.583984 L 42.257812 41.751953 C 42.257812 40.204621 41.012175 38.958984 39.464844 38.958984 L 4.7695312 38.958984 z M 48.798828 38.958984 C 47.2515 38.958984 46.005859 40.204621 46.005859 41.751953 L 46.005859 51.583984 C 46.005859 53.131316 47.2515 54.375 48.798828 54.375 L 83.494141 54.375 C 85.041472 54.375 86.287109 53.131316 86.287109 51.583984 L 86.287109 41.751953 C 86.287109 40.204621 85.041471 38.958984 83.494141 38.958984 L 48.798828 38.958984 z M 92.828125 38.958984 C 91.280794 38.958984 90.035156 40.204621 90.035156 41.751953 L 90.035156 51.583984 C 90.035156 53.131316 91.280794 54.375 92.828125 54.375 L 127.52344 54.375 C 129.07077 54.375 130.31641 53.131316 130.31641 51.583984 L 130.31641 41.751953 C 130.31641 40.204621 129.07077 38.958984 127.52344 38.958984 L 92.828125 38.958984 z M 0 58.4375 L 0 61.230469 L 0 64.103516 L 0 68.189453 L 0 71.060547 L 0 73.853516 L 2.7929688 73.853516 L 5.6660156 73.853516 L 15.621094 73.853516 C 17.16842 73.853516 18.414062 72.607872 18.414062 71.060547 L 18.414062 61.230469 C 18.414062 59.68315 17.16842 58.4375 15.621094 58.4375 L 5.6660156 58.4375 L 2.7929688 58.4375 L 0 58.4375 z M 25.53125 58.4375 C 23.983919 58.4375 22.738281 59.683145 22.738281 61.230469 L 22.738281 71.060547 C 22.738281 72.607872 23.983919 73.855469 25.53125 73.855469 L 61.191406 73.855469 C 62.738739 73.855469 63.984375 72.607872 63.984375 71.060547 L 63.984375 61.230469 C 63.984375 59.683145 62.738739 58.4375 61.191406 58.4375 L 25.53125 58.4375 z M 71.101562 58.4375 C 69.554231 58.4375 68.308594 59.683145 68.308594 61.230469 L 68.308594 71.060547 C 68.308594 72.607872 69.554231 73.855469 71.101562 73.855469 L 106.75977 73.855469 C 108.3071 73.855469 109.55469 72.607872 109.55469 71.060547 L 109.55469 61.230469 C 109.55469 59.683145 108.3071 58.4375 106.75977 58.4375 L 71.101562 58.4375 z M 116.67188 58.4375 C 115.12455 58.4375 113.87891 59.68315 113.87891 61.230469 L 113.87891 71.060547 C 113.87891 72.607872 115.12455 73.853516 116.67188 73.853516 L 126.62695 73.853516 L 129.5 73.853516 L 132.29297 73.853516 L 132.29297 71.060547 L 132.29297 68.189453 L 132.29297 64.103516 L 132.29297 61.230469 L 132.29297 58.4375 L 129.5 58.4375 L 126.62695 58.4375 L 116.67188 58.4375 z M 4.7695312 77.917969 C 3.2222028 77.917969 1.9765625 79.163605 1.9765625 80.710938 L 1.9765625 90.542969 C 1.9765625 92.0903 3.2222028 93.333984 4.7695312 93.333984 L 39.464844 93.333984 C 41.012175 93.333984 42.257812 92.0903 42.257812 90.542969 L 42.257812 80.710938 C 42.257812 79.163605 41.012175 77.917969 39.464844 77.917969 L 4.7695312 77.917969 z M 48.798828 77.917969 C 47.2515 77.917969 46.005859 79.163605 46.005859 80.710938 L 46.005859 90.542969 C 46.005859 92.0903 47.2515 93.333984 48.798828 93.333984 L 83.494141 93.333984 C 85.041472 93.333984 86.287109 92.0903 86.287109 90.542969 L 86.287109 80.710938 C 86.287109 79.163605 85.041471 77.917969 83.494141 77.917969 L 48.798828 77.917969 z M 92.828125 77.917969 C 91.280794 77.917969 90.035156 79.163605 90.035156 80.710938 L 90.035156 90.542969 C 90.035156 92.0903 91.280794 93.333984 92.828125 93.333984 L 127.52344 93.333984 C 129.07077 93.333984 130.31641 92.0903 130.31641 90.542969 L 130.31641 80.710938 C 130.31641 79.163605 129.07077 77.917969 127.52344 77.917969 L 92.828125 77.917969 z M 0 97.396484 L 0 100.18945 L 0 103.0625 L 0 107.14844 L 0 110.01953 L 0 112.8125 L 2.7929688 112.8125 L 5.6660156 112.8125 L 15.621094 112.8125 C 17.16842 112.8125 18.414062 111.56686 18.414062 110.01953 L 18.414062 100.18945 C 18.414062 98.642141 17.16842 97.396484 15.621094 97.396484 L 5.6660156 97.396484 L 2.7929688 97.396484 L 0 97.396484 z M 25.53125 97.396484 C 23.983919 97.396484 22.738281 98.642136 22.738281 100.18945 L 22.738281 110.01953 C 22.738281 111.56686 23.983919 112.8125 25.53125 112.8125 L 61.191406 112.8125 C 62.738739 112.8125 63.984375 111.56686 63.984375 110.01953 L 63.984375 100.18945 C 63.984375 98.642136 62.738739 97.396484 61.191406 97.396484 L 25.53125 97.396484 z M 71.101562 97.396484 C 69.554231 97.396484 68.308594 98.642136 68.308594 100.18945 L 68.308594 110.01953 C 68.308594 111.56686 69.554231 112.8125 71.101562 112.8125 L 106.75977 112.8125 C 108.3071 112.8125 109.55469 111.56686 109.55469 110.01953 L 109.55469 100.18945 C 109.55469 98.642136 108.3071 97.396484 106.75977 97.396484 L 71.101562 97.396484 z M 116.67188 97.396484 C 115.12455 97.396484 113.87891 98.642141 113.87891 100.18945 L 113.87891 110.01953 C 113.87891 111.56686 115.12455 112.8125 116.67188 112.8125 L 126.62695 112.8125 L 129.5 112.8125 L 132.29297 112.8125 L 132.29297 110.01953 L 132.29297 107.14844 L 132.29297 103.0625 L 132.29297 100.18945 L 132.29297 97.396484 L 129.5 97.396484 L 126.62695 97.396484 L 116.67188 97.396484 z M 4.7695312 116.875 C 3.2222028 116.875 1.9765625 118.12064 1.9765625 119.66797 L 1.9765625 129.5 C 1.9765625 131.04733 3.2222028 132.29102 4.7695312 132.29102 L 39.464844 132.29102 C 41.012175 132.29102 42.257812 131.04733 42.257812 129.5 L 42.257812 119.66797 C 42.257812 118.12064 41.012175 116.875 39.464844 116.875 L 4.7695312 116.875 z M 48.798828 116.875 C 47.2515 116.875 46.005859 118.12064 46.005859 119.66797 L 46.005859 129.5 C 46.005859 131.04733 47.2515 132.29102 48.798828 132.29102 L 83.494141 132.29102 C 85.041472 132.29102 86.287109 131.04733 86.287109 129.5 L 86.287109 119.66797 C 86.287109 118.12064 85.041471 116.875 83.494141 116.875 L 48.798828 116.875 z M 92.828125 116.875 C 91.280794 116.875 90.035156 118.12064 90.035156 119.66797 L 90.035156 129.5 C 90.035156 131.04733 91.280794 132.29102 92.828125 132.29102 L 127.52344 132.29102 C 129.07077 132.29102 130.31641 131.04733 130.31641 129.5 L 130.31641 119.66797 C 130.31641 118.12064 129.07077 116.875 127.52344 116.875 L 92.828125 116.875 z " />
</svg>
